<svg xmlns="http://www.w3.org/2000/svg" width="114.401" height="138.913" viewBox="0 0 114.401 138.913"><defs><style>.a{fill:#233340;fill-rule:evenodd;}</style></defs><g transform="translate(-1090.464 -992.131)"><path class="a" d="M1204.854,1097.161v-94.832a10.21,10.21,0,0,0-10.146-10.2h-94.049a10.252,10.252,0,0,0-10.195,10.2v118.517a10.252,10.252,0,0,0,10.195,10.2h70.82a8.338,8.338,0,0,0,5.829-2.256l25.927-27.263a5.4,5.4,0,0,0,1.619-4.364Zm-106.844-94.832a2.669,2.669,0,0,1,2.648-2.648h94.049a2.659,2.659,0,0,1,2.6,2.648v90.959c-.051,2.4-1.126,3.924-3.969,3.972h-14.313c-4.311.049-6.566,2.206-6.617,6.62v15.592c-.195,2.7-1.468,4.071-3.969,4.021h-67.78a2.637,2.637,0,0,1-2.648-2.646V1002.329Z" transform="translate(0 0)"/><path class="a" d="M1109.55,1067.2h77.189v7.354H1109.55Zm0,14.661h77.189v7.354H1109.55Zm0,14.659h38.57v7.356h-38.57Z" transform="translate(-0.461 -1.813)"/><path class="a" d="M1174.7,1037.859v2.892h-4.8v16.574h-42.885v-16.574h-4.8v-2.892l26.222-26.282Zm-43.033-21.477h7.841v2.108l-7.841,7.9Z" transform="translate(-0.767 -0.47)"/></g></svg>