<svg xmlns="http://www.w3.org/2000/svg" width="26.969" height="30.407" viewBox="0 0 26.969 30.407"><defs><style>.a{fill:#0060a7;}.a,.b{fill-rule:evenodd;}.b{fill:#fff;}</style></defs><g transform="translate(13.484 15.203)"><g transform="translate(-13.484 -15.203)"><path class="a" d="M14.714.357l5.534,3.162,5.578,3.206A2.328,2.328,0,0,1,26.968,8.79h0V21.659a2.372,2.372,0,0,1-1.362,2.152l-5.358,3.075L14.67,30.092a2.328,2.328,0,0,1-2.372,0L6.764,26.885,1.186,23.679A2.328,2.328,0,0,1,0,21.659H0V8.79A2.372,2.372,0,0,1,1.362,6.638l5.4-3.118L12.342.313a2.328,2.328,0,0,1,2.372.044Z" transform="translate(0 -0.01)"/><path class="b" d="M18.375,32.728H15.607v-9h2.767Zm-1.405-10.19h0a1.669,1.669,0,1,1,1.669-1.669A1.669,1.669,0,0,1,16.969,22.538Zm11.859,10.19H26.061V27.984c0-1.274-.483-2.02-1.537-2.02s-1.713.747-1.713,2.02v4.744H20.175v-9h2.679v1.23a3.118,3.118,0,0,1,2.723-1.493c1.889,0,3.294,1.186,3.294,3.558Z" transform="translate(-8.58 -10.771)"/></g></g></svg>