<svg xmlns="http://www.w3.org/2000/svg" xmlns:xlink="http://www.w3.org/1999/xlink" width="27.012" height="30.516" viewBox="0 0 27.012 30.516"><defs><style>.a,.b,.c{fill-rule:evenodd;}.a{fill:url(#a);}.b{fill:#f3bfd4;opacity:0.2;}.c{fill:#fff;}</style><linearGradient id="a" x1="0.25" y1="0.116" x2="0.749" y2="0.884" gradientUnits="objectBoundingBox"><stop offset="0" stop-color="#2d509f"/><stop offset="0.09" stop-color="#3a4a99"/><stop offset="0.2" stop-color="#5e378c"/><stop offset="0.32" stop-color="#ae2272"/><stop offset="0.44" stop-color="#d51759"/><stop offset="0.57" stop-color="#e60d1c"/><stop offset="0.69" stop-color="#ec4630"/><stop offset="0.8" stop-color="#f05e28"/><stop offset="0.91" stop-color="#f05e28"/><stop offset="1" stop-color="#ffd268"/></linearGradient></defs><g transform="translate(13.506 15.258)"><g transform="translate(-13.506 -15.258)"><path class="a" d="M14.714.557l5.534,3.162,5.578,3.206a2.328,2.328,0,0,1,1.186,2.02h0V21.859a2.372,2.372,0,0,1-1.362,2.152l-5.4,3.075L14.67,30.292a2.328,2.328,0,0,1-2.372,0L6.764,27.085,1.186,23.879A2.328,2.328,0,0,1,0,21.859H0V8.99A2.372,2.372,0,0,1,1.362,6.838l5.4-3.118L12.342.513A2.328,2.328,0,0,1,14.714.557Z" transform="translate(0 -0.1)"/><path class="b" d="M1.186,23.652A2.328,2.328,0,0,1,0,21.631H0V8.762A2.372,2.372,0,0,1,1.362,6.61l5.4-3.118L12.342.285a2.328,2.328,0,0,1,2.372,0l5.534,3.206L25.826,6.7a2.328,2.328,0,0,1,1.142,2.064h0" transform="translate(0 0.039)"/><path class="c" d="M21.888,19.388H19.253a4.963,4.963,0,0,0-1.625.307,3.47,3.47,0,0,0-1.976,1.976,4.963,4.963,0,0,0-.307,1.625c-.044.7-.044.966-.044,2.767s0,2.064.044,2.767a4.963,4.963,0,0,0,.307,1.625,3.47,3.47,0,0,0,1.976,1.976,4.963,4.963,0,0,0,1.625.307h5.622a4.963,4.963,0,0,0,1.625-.307,3.47,3.47,0,0,0,1.976-1.976,4.963,4.963,0,0,0,.307-1.625c.044-.7.044-.922.044-2.635v-.351c0-1.669,0-1.933-.044-2.635a4.963,4.963,0,0,0-.307-1.625A3.47,3.47,0,0,0,26.5,19.607a4.963,4.963,0,0,0-1.625-.307H21.888Zm4.568,3.162a.791.791,0,1,1-.791-.791A.791.791,0,0,1,26.456,22.55Zm-4.392,5.842a2.24,2.24,0,1,1,2.24-2.24A2.24,2.24,0,0,1,22.064,28.392Zm0-5.71a3.47,3.47,0,1,1-3.47,3.47,3.47,3.47,0,0,1,3.47-3.47Zm0-2.064h2.723a3.733,3.733,0,0,1,1.274.22,2.24,2.24,0,0,1,1.274,1.274,3.733,3.733,0,0,1,.22,1.274c.044.7.044.922.044,2.723s0,2.02-.044,2.723a3.733,3.733,0,0,1-.22,1.274,2.24,2.24,0,0,1-1.274,1.274,3.733,3.733,0,0,1-1.274.22H19.341a3.733,3.733,0,0,1-1.274-.22A2.24,2.24,0,0,1,16.793,30.1a3.733,3.733,0,0,1-.22-1.274c-.044-.7-.044-.922-.044-2.723s0-2.02.044-2.723a3.733,3.733,0,0,1,.22-1.274,2.24,2.24,0,0,1,1.274-1.274,3.733,3.733,0,0,1,1.274-.22Z" transform="translate(-8.58 -10.806)"/></g></g></svg>