<svg xmlns="http://www.w3.org/2000/svg" width="26.969" height="30.407" viewBox="0 0 26.969 30.407"><defs><style>.a{fill:#003d80;}.a,.b{fill-rule:evenodd;}.b{fill:#fff;}</style></defs><g transform="translate(13.484 15.203)"><g transform="translate(-13.484 -15.203)"><path class="a" d="M14.714.357l5.534,3.162,5.578,3.206A2.328,2.328,0,0,1,26.968,8.79h0V21.659a2.372,2.372,0,0,1-1.362,2.152l-5.358,3.075L14.67,30.092a2.328,2.328,0,0,1-2.372,0L6.764,26.885,1.186,23.679A2.328,2.328,0,0,1,0,21.659H0V8.79A2.372,2.372,0,0,1,1.362,6.638l5.4-3.118L12.342.313a2.328,2.328,0,0,1,2.372.044Z" transform="translate(0 -0.01)"/><path class="b" d="M29.588,23.94h-2.02V22.622c.132-1.274,2.24-1.01,2.24-1.01v-.088h0V19.416h0c-.088,0-4.129-.966-4.963,2.108h0a15.724,15.724,0,0,0-.132,2.372H23v2.372h1.845v6.5h2.679V26.312h2.064l.22-2.372Z" transform="translate(-12.898 -10.812)"/></g></g></svg>