<svg xmlns="http://www.w3.org/2000/svg" width="19.749" height="18.291" viewBox="0 0 19.749 18.291"><defs><style>.a{fill:#f06362;}</style></defs><g transform="translate(9.875 9.145)"><path class="a" d="M7.369,15.309l-.3.795h5.652l-.32-.795Zm.6-1.591-.3.795h4.457l-.33-.795Zm.608-1.591-.309.795h3.242l-.309-.795ZM4.959,18.291h.821l3.786-9.93L9.16,7.246Zm-1.653,0h.831L8.755,6.152,8.35,5.058Zm-1.653,0h.821L7.934,3.976,7.5,2.96ZM6.985,0,0,18.291H.832L7.4,1.071l6.569,17.22h.821L7.817,0ZM8.637,0l6.974,18.291h.832L9.459,0ZM10.29,0l6.985,18.291H18.1L11.111,0Zm1.653,0,6.975,18.291h.832L12.764,0Z" transform="translate(-9.875 -9.145)"/></g></svg>