<?xml version="1.0"?>
<svg xmlns="http://www.w3.org/2000/svg" height="512px" viewBox="0 -1 512 512" width="512px"><g><path d="m0 300v5c0 30.328125 24.671875 55 55 55h402c30.328125 0 55-24.671875 55-55v-5zm0 0" data-original="#000000" class="active-path" data-old_color="#000000" fill="#FFFFFF"/><path d="m61.570312 270c2.261719-29.578125 11.152344-57.328125 25.183594-81.773438.121094-.242187.234375-.488281.371094-.726562.1875-.324219.398438-.632812.609375-.9375 16.917969-28.808594 41.015625-52.90625 69.824219-69.828125.304687-.207031.613281-.417969.941406-.609375.242188-.140625.492188-.253906.742188-.378906 28.53125-16.375 61.570312-25.746094 96.757812-25.746094s68.230469 9.371094 96.761719 25.746094c.246093.125.496093.238281.738281.378906.328125.191406.636719.402344.945312.609375 28.808594 16.921875 52.90625 41.023437 69.824219 69.832031.207031.304688.417969.609375.605469.933594.136719.238281.246094.484375.371094.726562 14.03125 24.445313 22.921875 52.195313 25.183594 81.773438h61.570312v-215c0-30.328125-24.671875-55-55-55h-402c-30.328125 0-55 24.671875-55 55v215zm44.429688-241h300c8.285156 0 15 6.714844 15 15s-6.714844 15-15 15h-300c-8.285156 0-15-6.714844-15-15s6.714844-15 15-15zm0 0" data-original="#000000" class="active-path" data-old_color="#000000" fill="#FFFFFF"/><path d="m213.578125 270h84.84375c-6.195313-17.460938-22.867187-30-42.421875-30s-36.226562 12.539062-42.421875 30zm0 0" data-original="#000000" class="active-path" data-old_color="#000000" fill="#FFFFFF"/><path d="m405.785156 215.839844-12.382812 7.148437c-2.359375 1.367188-4.9375 2.015625-7.484375 2.015625-5.183594 0-10.226563-2.691406-13.003907-7.503906-4.140624-7.175781-1.683593-16.347656 5.488282-20.488281l12.347656-7.128907c-10.867188-15.347656-24.285156-28.765624-39.632812-39.632812l-7.128907 12.347656c-2.777343 4.8125-7.816406 7.503906-13.003906 7.503906-2.542969 0-5.121094-.648437-7.484375-2.015624-7.175781-4.140626-9.632812-13.3125-5.488281-20.488282l7.148437-12.382812c-16.734375-7.757813-34.976562-12.789063-54.160156-14.523438v14.308594c0 8.285156-6.714844 15-15 15s-15-6.714844-15-15v-14.3125c-19.179688 1.738281-37.425781 6.769531-54.160156 14.527344l7.148437 12.382812c4.144531 7.171875 1.6875 16.347656-5.488281 20.488282-2.363281 1.363281-4.941406 2.011718-7.484375 2.011718-5.1875 0-10.226563-2.6875-13.003906-7.5l-7.128907-12.347656c-15.347656 10.863281-28.765624 24.28125-39.632812 39.632812l12.347656 7.125c7.171875 4.144532 9.628906 13.316407 5.488282 20.492188-2.777344 4.8125-7.820313 7.503906-13.003907 7.503906-2.546875 0-5.125-.648437-7.484375-2.015625l-12.382812-7.148437c-7.757813 16.734375-12.789063 34.980468-14.527344 54.160156h90.820312c6.96875-34.191406 37.273438-60 73.492188-60 8.296875 0 16.277344 1.375 23.742188 3.875l8.269531-14.316406c4.140625-7.175782 13.3125-9.636719 20.488281-5.492188 7.175781 4.144532 9.632812 13.316406 5.488281 20.492188l-8.28125 14.34375c11.929688 10.585937 20.480469 24.894531 23.785157 41.097656h90.820312c-1.738281-19.179688-6.769531-37.425781-14.527344-54.160156zm0 0" data-original="#000000" class="active-path" data-old_color="#000000" fill="#FFFFFF"/><path d="m356 450h-30l-20-60h-100l-20 60h-30c-19.300781 0-35 15.699219-35 35v10c0 8.285156 6.714844 15 15 15h240c8.285156 0 15-6.714844 15-15v-10c0-19.300781-15.699219-35-35-35zm0 0" data-original="#000000" class="active-path" data-old_color="#000000" fill="#FFFFFF"/></g> </svg>
