<svg xmlns="http://www.w3.org/2000/svg" width="26.969" height="30.407" viewBox="0 0 26.969 30.407"><defs><style>.a{fill:#3899d6;}.a,.b{fill-rule:evenodd;}.b{fill:#fff;}</style></defs><g transform="translate(13.484 15.203)"><g transform="translate(-13.484 -15.203)"><path class="a" d="M14.714.357l5.534,3.162,5.578,3.206A2.328,2.328,0,0,1,26.968,8.79h0V21.659a2.372,2.372,0,0,1-1.362,2.152l-5.358,3.075L14.67,30.092a2.328,2.328,0,0,1-2.372,0L6.764,26.885,1.186,23.679A2.328,2.328,0,0,1,0,21.659H0V8.79A2.372,2.372,0,0,1,1.362,6.638l5.4-3.118L12.342.313a2.328,2.328,0,0,1,2.372.044Z" transform="translate(0 -0.01)"/><path class="b" d="M27.422,24.959A7.9,7.9,0,0,1,15.3,31.943,5.578,5.578,0,0,0,19.385,30.8a2.767,2.767,0,0,1-2.591-1.933,2.767,2.767,0,0,0,1.23-.044,2.767,2.767,0,0,1-2.24-2.767,2.767,2.767,0,0,0,1.274.351,2.767,2.767,0,0,1-.878-3.689,7.862,7.862,0,0,0,5.71,2.9,2.767,2.767,0,0,1,4.7-2.5,5.578,5.578,0,0,0,1.757-.659,2.767,2.767,0,0,1-1.23,1.537,5.534,5.534,0,0,0,1.581-.439A5.622,5.622,0,0,1,27.422,24.959Z" transform="translate(-8.58 -12.49)"/></g></g></svg>