<svg xmlns="http://www.w3.org/2000/svg" width="71.108" height="86.344" viewBox="0 0 71.108 86.344"><defs><style>.a{fill:#233340;fill-rule:evenodd;}</style></defs><g transform="translate(-1090.464 -992.131)"><path class="a" d="M1161.566,1057.415V998.47a6.346,6.346,0,0,0-6.307-6.339H1096.8a6.372,6.372,0,0,0-6.337,6.339v73.667a6.372,6.372,0,0,0,6.337,6.339h44.02a5.183,5.183,0,0,0,3.623-1.4l16.115-16.946a3.356,3.356,0,0,0,1.006-2.713Zm-66.411-58.945a1.659,1.659,0,0,1,1.646-1.646h58.459a1.653,1.653,0,0,1,1.615,1.646v56.538a2.217,2.217,0,0,1-2.467,2.469h-8.9c-2.68.031-4.082,1.371-4.113,4.115v9.692c-.121,1.676-.912,2.53-2.467,2.5H1096.8a1.639,1.639,0,0,1-1.646-1.645V998.47Z" transform="translate(0 0)"/><path class="a" d="M1109.55,1067.2h47.978v4.571H1109.55Zm0,9.113h47.978v4.571H1109.55Zm0,9.112h23.974V1090H1109.55Z" transform="translate(-7.509 -29.536)"/><path class="a" d="M1154.832,1027.912v1.8h-2.985v10.3H1125.19v-10.3H1122.2v-1.8l16.3-16.336Zm-26.748-13.35h4.874v1.31l-4.874,4.908Z" transform="translate(-12.488 -7.65)"/></g></svg>