<svg xmlns="http://www.w3.org/2000/svg" xmlns:xlink="http://www.w3.org/1999/xlink" width="138.266" height="95.593" viewBox="0 0 138.266 95.593"><defs><style>.a,.q,.r{fill:none;}.b{fill:#e9f6ff;}.c,.g{fill:#acd4f8;}.d{fill:#7eb3ff;}.e{fill:#73a9ff;}.f{clip-path:url(#a);}.g{mix-blend-mode:multiply;isolation:isolate;}.h{clip-path:url(#b);}.i{fill:#dd000b;}.j{fill:#f7f8fc;}.k{fill:#f7b68b;}.l{fill:#e6e6e6;}.m{fill:#ec9568;}.n{fill:#212957;}.o{fill:#281616;}.p{fill:#3b47bc;}.q{stroke:#3b47bc;}.q,.r{stroke-miterlimit:10;}.r{stroke:#281616;}</style><clipPath id="a"><path class="a" d="M1537.881,1082.335q-1.979-21.231-3.959-42.45c-27.816-19.67-49.45,26.881-77.266,7.207q1.982,21.228,3.959,42.448C1488.431,1109.212,1510.067,1062.661,1537.881,1082.335Z" transform="translate(-1456.655 -1034.927)"/></clipPath><clipPath id="b"><path class="a" d="M1600.13,1046.245q2.684-21.149,5.373-42.294c-22.865-25.253-54.118,15.473-76.981-9.784q-2.689,21.152-5.376,42.294C1546.011,1061.716,1577.261,1020.99,1600.13,1046.245Z" transform="translate(-1523.147 -994.167)"/></clipPath></defs><path class="b" d="M1487.639,1283.84c-9.7-.235-39.75-1.222-57.99-3.931-33.822-5.022-61.431,3.064-43.277,12.429,5.073,2.617-9.53,18.187,26.269,21.808,31.426,3.178,63.449-3.361,78.948-6.162s22.647-7.832,25.966-10.1C1520.474,1295.893,1521.539,1284.661,1487.639,1283.84Z" transform="translate(-1380.614 -1219.406)"/><g transform="translate(11.932 0)"><g transform="translate(0 20.763)"><path class="c" d="M1537.881,1082.335q-1.979-21.231-3.959-42.45c-27.816-19.67-49.45,26.881-77.266,7.207q1.982,21.228,3.959,42.448C1488.431,1109.212,1510.067,1062.661,1537.881,1082.335Z" transform="translate(-1456.655 -1034.927)"/><g transform="translate(4.06 3.012)"><path class="d" d="M1684.29,1158.879a8.175,8.175,0,0,1,4.23-1.069q.229-1.7.459-3.4a9.6,9.6,0,0,0-4.319,1.124c-.077-.818-.154-1.633-.23-2.45l-2.452,1.332q.124,1.332.249,2.658c-2.806,2.041-4.162,4.779-3.95,7.076.219,2.344,1.518,3.187,4.572,2.673,2.205-.358,3.124-.261,3.2.568.071.72-.383,1.752-1.994,2.629a7.435,7.435,0,0,1-3.655,1.012c-.158,1.1-.313,2.2-.473,3.307a8.768,8.768,0,0,0,3.7-1.079q.106,1.137.214,2.271l2.432-1.319q-.115-1.224-.23-2.453c2.605-1.955,3.978-4.522,3.764-6.817-.233-2.507-2.166-2.874-4.905-2.351-1.915.365-2.772.175-2.863-.805C1681.941,1160.777,1682.859,1159.656,1684.29,1158.879Z" transform="translate(-1647.541 -1137.553)"/><path class="d" d="M1556.592,1254.431a3.571,3.571,0,0,0-3.443,3.846,3.8,3.8,0,1,0,7.547-.687A3.576,3.576,0,0,0,1556.592,1254.431Z" transform="translate(-1542.054 -1222.981)"/><path class="d" d="M1832.986,1146.771a4.036,4.036,0,0,0-3.4,4.39,3.8,3.8,0,0,0,7.546-.683A4.043,4.043,0,0,0,1832.986,1146.771Z" transform="translate(-1775.114 -1132.219)"/><path class="e" d="M1551.97,1061.428c-2.219-.785-4.506-3.1-4.712-5.309,0,0,0-.266,0-.276a1.294,1.294,0,0,0-.333-.771,1.424,1.424,0,0,0-.741-.459c-20.1-4.25-37.5,20.378-57.593,16.133a.8.8,0,0,0-.663.272.934.934,0,0,0-.168.78c.189,2.073-1.4,3.379-3.586,2.388a5.663,5.663,0,0,1-.591-.327.978.978,0,0,0-.776-.17.458.458,0,0,0-.272.537q1.142,12.28,2.293,24.56a1.737,1.737,0,0,0,.417.906,1.882,1.882,0,0,0,.828.623c2.282.807,4.639,3.1,4.846,5.351.318.1.636.2.956.281-.318,0-.64-.007-.963-.024a1.327,1.327,0,0,0,.329.785,1.413,1.413,0,0,0,.749.47c20.094,4.244,37.5-20.386,57.591-16.136a.814.814,0,0,0,.658-.278.982.982,0,0,0,.179-.78c-.21-2.264,1.838-3.5,4.15-2.069a1.007,1.007,0,0,0,.789.185c.206-.064.305-.258.279-.537q-1.142-12.281-2.291-24.559a2.047,2.047,0,0,0-.48-.931A2.219,2.219,0,0,0,1551.97,1061.428Zm-54.019,33.6c-3.128.323-5.976-2.682-6.269-5.81s2.08-5.236,5.21-5.556c3.132-.3,5.863,1.429,6.157,4.578C1503.341,1091.353,1501.084,1094.726,1497.951,1095.024Zm22.414-.477c-7.23,4.112-13.75.364-14.46-7.257-.7-7.465,4.682-15.947,11.913-20.059s13.735-.366,14.448,7.268C1532.962,1081.955,1527.587,1090.442,1520.365,1094.547Zm20.919-16.419c-3.139.3-5.87-1.427-6.165-4.575-.288-3.116,1.968-6.493,5.1-6.79,3.128-.322,5.979,2.689,6.27,5.817S1544.414,1077.806,1541.284,1078.127Z" transform="translate(-1482.53 -1054.118)"/></g><g class="f"><path class="g" d="M1590.146,1050.658q-.038-21.318-.075-42.633c-25.905-22.124-51.7,22.258-77.6.131q.042,21.322.075,42.636C1538.449,1072.917,1564.238,1028.531,1590.146,1050.658Z" transform="translate(-1503.711 -1006.875)"/></g></g><g transform="translate(10.434 14.367)"><path class="c" d="M1600.13,1046.245q2.684-21.149,5.373-42.294c-22.865-25.253-54.118,15.473-76.981-9.784q-2.689,21.152-5.376,42.294C1546.011,1061.716,1577.261,1020.99,1600.13,1046.245Z" transform="translate(-1523.147 -994.167)"/><g transform="translate(3.838 4.148)"><path class="d" d="M1753.392,1096.269a8.214,8.214,0,0,1,4.36-.123c.393-1.074.793-2.146,1.187-3.219a9.6,9.6,0,0,0-4.459.157q.154-1.223.309-2.441c-.9.254-1.787.51-2.684.765-.111.883-.225,1.765-.334,2.65-3.184,1.381-5.1,3.758-5.394,6.047-.3,2.333.788,3.439,3.876,3.6,2.231.132,3.107.424,3,1.248-.089.722-.756,1.63-2.519,2.134a7.423,7.423,0,0,1-3.786.194q-.592,1.562-1.18,3.124a8.741,8.741,0,0,0,3.843-.249c-.1.755-.192,1.508-.289,2.26.89-.251,1.774-.5,2.66-.755.105-.817.208-1.63.312-2.444,2.969-1.341,4.867-3.548,5.156-5.836.319-2.5-1.489-3.276-4.274-3.364-1.95-.06-2.745-.431-2.622-1.409C1750.685,1097.609,1751.825,1096.716,1753.392,1096.269Z" transform="translate(-1714.674 -1079.652)"/><path class="e" d="M1619.427,1158.48a3.57,3.57,0,0,0-4.2,3,3.8,3.8,0,1,0,7.516.97A3.575,3.575,0,0,0,1619.427,1158.48Z" transform="translate(-1604.591 -1136.816)"/><path class="d" d="M1912,1113.522a4.035,4.035,0,0,0-4.27,3.546,3.8,3.8,0,0,0,7.512.976A4.041,4.041,0,0,0,1912,1113.522Z" transform="translate(-1851.197 -1098.919)"/><path class="e" d="M1621.282,1030.653c-1.992-1.249-3.724-4-3.442-6.206,0-.005.056-.261.056-.271a1.265,1.265,0,0,0-.155-.824,1.4,1.4,0,0,0-.625-.61c-18.687-8.521-41.035,11.728-59.721,3.212a.792.792,0,0,0-.708.119.944.944,0,0,0-.334.727c-.264,2.067-2.1,2.991-4.02,1.549a5.182,5.182,0,0,1-.5-.449.973.973,0,0,0-.721-.333c-.211.02-.353.19-.382.466q-1.556,12.234-3.111,24.468a1.83,1.83,0,0,0,.21.977,1.89,1.89,0,0,0,.674.787c2.052,1.286,3.852,4.036,3.564,6.28.289.169.581.329.872.481q-.468-.1-.932-.23a1.3,1.3,0,0,0,.148.835,1.408,1.408,0,0,0,.63.621c18.687,8.518,41.034-11.733,59.722-3.214a.813.813,0,0,0,.7-.128.974.974,0,0,0,.344-.722c.287-2.254,2.554-3.014,4.5-1.114a1,1,0,0,0,.731.351c.215-.017.354-.186.389-.464q1.557-12.233,3.112-24.467a2.064,2.064,0,0,0-.269-1.012A2.221,2.221,0,0,0,1621.282,1030.653Zm-60.036,21.032c-3.124-.365-5.247-3.919-4.853-7.037s3.168-4.656,6.293-4.288c3.122.391,5.413,2.673,5.012,5.812C1567.306,1049.276,1564.368,1052.077,1561.246,1051.686Zm21.979,4.412c-7.954,2.441-13.5-2.634-12.534-10.23.945-7.439,8.039-14.545,15.993-16.985s13.489,2.634,12.52,10.239C1598.26,1046.552,1591.168,1053.662,1583.225,1056.1Zm23.992-11.47c-3.13-.393-5.418-2.671-5.02-5.808.4-3.106,3.331-5.911,6.459-5.52,3.12.369,5.249,3.929,4.852,7.043S1610.341,1045,1607.218,1044.628Z" transform="translate(-1547.607 -1020.601)"/></g><g class="h"><path class="g" d="M1644.056,997.021q4.6-20.811,9.209-41.625c-20.47-27.232-55.3,10.472-75.77-16.763q-4.607,20.814-9.208,41.627C1588.756,1007.5,1623.59,969.789,1644.056,997.021Z" transform="translate(-1561.205 -947.347)"/></g></g><g transform="translate(23.161)"><path class="c" d="M1678.145,966.906q6.51-20.3,13.02-40.6c-17.865-29.005-56.033,5.315-73.9-23.7q-6.51,20.3-13.02,40.6C1622.114,972.219,1660.283,937.9,1678.145,966.906Z" transform="translate(-1604.25 -902.611)"/><g transform="translate(4.868 10.754)"><path class="e" d="M1841.823,1047.693a8.172,8.172,0,0,1,4.3.677q.88-1.477,1.76-2.949a9.627,9.627,0,0,0-4.416-.661q.378-1.173.753-2.343c-.926.086-1.852.175-2.777.262-.271.848-.543,1.7-.817,2.543-3.382.774-5.7,2.762-6.409,4.958-.719,2.24.146,3.524,3.157,4.252,2.165.536,2.974.986,2.721,1.777-.222.693-1.042,1.462-2.868,1.636a7.41,7.41,0,0,1-3.757-.5q-.869,1.428-1.733,2.857a8.766,8.766,0,0,0,3.822.458q-.348,1.084-.7,2.168c.922-.084,1.837-.172,2.756-.258.25-.779.5-1.563.752-2.344,3.164-.776,5.433-2.6,6.137-4.794.77-2.4-.864-3.492-3.586-4.089-1.905-.417-2.622-.927-2.321-1.864C1838.912,1048.516,1840.2,1047.845,1841.823,1047.693Z" transform="translate(-1800.911 -1031.233)"/><path class="e" d="M1714.323,1078.719a3.57,3.57,0,0,0-4.679,2.185,3.8,3.8,0,1,0,7.21,2.327A3.57,3.57,0,0,0,1714.323,1078.719Z" transform="translate(-1697.814 -1061.665)"/><path class="e" d="M2009.732,1088.313a4.036,4.036,0,0,0-4.847,2.7,3.8,3.8,0,0,0,7.208,2.333A4.04,4.04,0,0,0,2009.732,1088.313Z" transform="translate(-1946.738 -1069.793)"/><path class="e" d="M1711.752,987.543c-1.732-1.593-2.929-4.618-2.251-6.731,0-.008.106-.246.108-.254a1.3,1.3,0,0,0,0-.841,1.4,1.4,0,0,0-.5-.714c-16.814-11.8-42.487,4.025-59.3-7.765a.79.79,0,0,0-.718-.013.958.958,0,0,0-.458.654c-.64,1.981-2.61,2.558-4.236.788a5.164,5.164,0,0,1-.413-.533.981.981,0,0,0-.651-.459c-.208-.018-.377.122-.46.387l-7.532,23.487a1.8,1.8,0,0,0,.026,1,1.9,1.9,0,0,0,.519.9c1.784,1.639,3.048,4.674,2.357,6.824.252.219.51.431.769.636q-.441-.189-.877-.4a1.327,1.327,0,0,0-.006.85,1.428,1.428,0,0,0,.5.727c16.816,11.791,42.491-4.032,59.3,7.763a.815.815,0,0,0,.716,0,.989.989,0,0,0,.469-.646c.693-2.165,3.062-2.5,4.628-.274a1.024,1.024,0,0,0,.652.482c.216.02.384-.12.47-.388q3.768-11.743,7.532-23.486a2.065,2.065,0,0,0-.076-1.041A2.239,2.239,0,0,0,1711.752,987.543Zm-62.87,9.7c-3.005-.931-4.445-4.813-3.486-7.808s3.968-4,6.972-3.064c3,.956,4.832,3.617,3.866,6.63C1655.281,995.98,1651.879,998.194,1648.883,997.242Zm20.8,8.355c-8.265.947-12.789-5.059-10.45-12.349,2.289-7.14,10.564-12.829,18.827-13.774s12.78,5.058,10.44,12.357C1686.213,998.961,1677.94,1004.658,1669.683,1005.6Zm25.684-6.888c-3-.959-4.836-3.616-3.872-6.629.958-2.98,4.358-5.2,7.359-4.244,3,.933,4.443,4.821,3.484,7.812S1698.375,999.644,1695.368,998.71Z" transform="translate(-1635.274 -971.144)"/></g></g></g><g transform="translate(79.794 27.365)"><g transform="translate(0 0)"><path class="i" d="M1913.087,1205.318c-.086,2.3-1.826,7.908-2.881,11.121h-16.378l-2.93-8.056s-6.2-9.654,4.475-16.059c1.533-.919,9.5-.245,9.5-.245s5.9.4,13.73,12.137C1918.849,1204.583,1913.209,1202.008,1913.087,1205.318Z" transform="translate(-1889.107 -1173.819)"/><path class="j" d="M2013.318,1209.462c-.1.28.041.525.312.525h12.995a.8.8,0,0,0,.669-.525l3.3-9.357c.1-.28-.041-.476-.312-.476h-12.995a.745.745,0,0,0-.669.476Z" transform="translate(-1993.8 -1180.385)"/><path class="k" d="M1939.245,1116.342c-.123.613-1.183,2.469,3.433,6.743,3.31,3.065-7.233,3.432-10.911-1.226,0,0,5.639-.735,3.8-11.033C1934.188,1103.1,1939.245,1116.342,1939.245,1116.342Z" transform="translate(-1925.073 -1103.476)"/><path class="k" d="M1905.7,1222.755l2.207.9s.851.4.654.51a7.073,7.073,0,0,1-1.961-.388,8.086,8.086,0,0,0-1.226.694,4,4,0,0,1-2.043.409s-4.495,8.745-8.5,10.216-4.577.817-5.149-.245-1.634-5.8,2.452-7.028,10.3-3.433,10.3-3.433l1.961-2.064,1.39-.061s.572.409.9.654" transform="translate(-1889.119 -1199.469)"/><path class="l" d="M2015.213,1210.783a.345.345,0,0,0,.312.508h12.995a.794.794,0,0,0,.669-.508l3.3-9.041a.31.31,0,0,0-.312-.459h-12.995a.745.745,0,0,0-.669.459Z" transform="translate(-1995.398 -1181.779)"/><path class="l" d="M.7,0H17.62a.7.7,0,0,1,.7.7v0a.7.7,0,0,1-.7.7H.7A.7.7,0,0,1,0,.7v0A.7.7,0,0,1,.7,0Z" transform="translate(15.103 29.511)"/><path class="m" d="M2016.2,1268.262h9.317s1.962.657.123,2.987a3.639,3.639,0,0,1-4.781,1.248c-1.042-.429-4.536-3.636-4.536-3.636l-1.471.174-1.839-.863a1.134,1.134,0,0,1,.98,0,1.57,1.57,0,0,0,.858.182l.552-.307-.368-.43-.184-.429.858.507Z" transform="translate(-1993.571 -1237.341)"/><path class="m" d="M1954.919,1116.686a17.8,17.8,0,0,0-.216-5.86c-1.38-7.727,3.678,5.516,3.678,5.516-.105.525-.9,1.964,1.783,5.056A8.042,8.042,0,0,1,1954.919,1116.686Z" transform="translate(-1944.209 -1103.476)"/><path class="k" d="M1955.535,1096.369s1.226,7.6.736,9.317-1.954,2.117-3.678-.245c-3.31-4.536-3.187-8.091-2.206-8.7S1954.064,1093.794,1955.535,1096.369Z" transform="translate(-1940.26 -1092.33)"/><path class="n" d="M1948.336,1082.14c1.191.191,3.065.858,4.29-2.207s-1.471-3.677-2.819-2.084-1.226,2.329-.368,1.594-.49-2.942-1.716-1.471-1.716,3.678-1.1,3.555-1.348-2.574-2.084-1.471-1.226,2.7-.368,3.187,1.839-1.226.981-.613-1.1,3.923,0,4.413,1.1-.368.123-1.348.367-3,.858-1.042c.042.168.368,1.287.368,1.287l.736.613a8.351,8.351,0,0,0-.491-3C1945.637,1081.754,1945.67,1081.712,1948.336,1082.14Z" transform="translate(-1935.144 -1076.997)"/><path class="k" d="M2025.355,1274.792s6.632.638,8.3.807a3.125,3.125,0,0,1,2.4,1.16,4.567,4.567,0,0,1-.572.9,3.64,3.64,0,0,1-4.781,1.248c-1.042-.429-4.536-3.636-4.536-3.636l-1.472.177C2024.629,1275.323,2025.231,1274.814,2025.355,1274.792Z" transform="translate(-2003.416 -1243.754)"/><path class="m" d="M1893.661,1249.28c.433.3.574.538,1.279.444,1.08-.144,4.459-2.073,6.061-3.289,2.537-1.926,6.011-7.37,6.147-7.368-.242.465-4.6,8.765-8.488,10.195C1895,1250.606,1894.208,1250.175,1893.661,1249.28Z" transform="translate(-1892.947 -1213.635)"/><circle class="j" cx="1.264" cy="1.264" r="1.264" transform="translate(27.794 23.655)"/></g><path class="o" d="M2070.461,1392.524a2.73,2.73,0,0,0,1.115,0c.781-.112,2.9-.558,4.795-.781s1.9.112,1.9.781a3.431,3.431,0,0,1-2.675,3.234,29.778,29.778,0,0,1-5.687,0s-1.784-.112-1.784-.558S2068.565,1391.855,2070.461,1392.524Z" transform="translate(-2040.028 -1342.295)"/><path class="o" d="M1968.9,1312.2s14.161-5.352,18.844-5.352,6.578,1.784,4.46,4.795-15.61,12.934-15.61,12.934h-8.363S1962.881,1318.219,1968.9,1312.2Z" transform="translate(-1953.968 -1270.778)"/><path class="p" d="M1914.049,1323.038s-1.9-5.018-.557-8.474,4.014-6.021,7.024-4.683,19.736,12.377,19.736,12.377l-1.672,3.679s-12.931-2.339-14.941-4.349c-.112-.111,0,4.349-3.011,5.018C1918.563,1327.065,1915.833,1326.16,1914.049,1323.038Z" transform="translate(-1909.262 -1273.032)"/><path class="o" d="M1975.176,1400.109a30.693,30.693,0,0,0,3.456-.557c.663-.266,1.9-1.9,4.237-1.784s4.46.223,3.68,1.784-2.007,2.453-5.241,2.788-6.244.445-6.8.111S1973.169,1399.886,1975.176,1400.109Z" transform="translate(-1960.577 -1347.427)"/><line class="q" x1="5.91" y2="6.133" transform="translate(24.411 38.521)"/><line class="r" x2="5.241" y2="3.011" transform="translate(10.028 46.215)"/></g></svg>