<svg xmlns="http://www.w3.org/2000/svg" width="34.371" height="29" viewBox="0 0 34.371 29"><defs><style>.a{fill:#1b7299;}</style></defs><path class="a" d="M533.824,1314.825a1.3,1.3,0,0,1-1.187-.918l-.409-1.13a1.723,1.723,0,0,1,0-1.152,1.414,1.414,0,0,1,.7-.81l15.893-7.692a1.134,1.134,0,0,1,.489-.114,1.109,1.109,0,0,1,.489.114l15.9,7.693a1.422,1.422,0,0,1,.7.813,1.7,1.7,0,0,1,0,1.147l-.409,1.127a1.3,1.3,0,0,1-1.185.918,1.1,1.1,0,0,1-.493-.116l-15-7.257-15,7.261A1.105,1.105,0,0,1,533.824,1314.825Zm29.453,3.222v1.074c0,.535-.537,1.074-1.611,1.074h-1.611a2.018,2.018,0,0,1-.388-.054c.04.029.082.057.117.086a4.422,4.422,0,0,1,1.882,3.618c0,1.575,0,4.046-.942,5.227a1.385,1.385,0,0,1-.669.261v1.6a1.073,1.073,0,0,1-1.074,1.074h-2.148a1.073,1.073,0,0,1-1.074-1.074v-1.074H542.87v1.074a1.073,1.073,0,0,1-1.074,1.074h-2.148a1.074,1.074,0,0,1-1.075-1.074v-1.6a1.391,1.391,0,0,1-.669-.261c-.942-1.181-.942-3.651-.942-5.227a4.428,4.428,0,0,1,1.882-3.618c.036-.03.08-.058.12-.086a2,2,0,0,1-.391.054h-1.611c-1.074,0-1.611-.538-1.611-1.074v-1.074c0-.537.537-1.074,1.611-1.074h.537c1.45,0-.13,1.344,1.882,1.615a12.816,12.816,0,0,1,1.758-3.846c.86-1.239,1.649-2.065,8.175-2.065s7.315.827,8.178,2.065a12.916,12.916,0,0,1,1.758,3.846c2.012-.271.43-1.615,1.88-1.615h.537C562.74,1316.973,563.277,1317.51,563.277,1318.047Zm-21.3,1.074h14.678a13.923,13.923,0,0,0-1.208-3.34c-.963-.587-3.136-.956-6.132-.956s-5.169.4-6.13.956A13.879,13.879,0,0,0,541.976,1319.121Zm1.33,6.444c-.143-.3-.333-.681-.541-1.027a4.387,4.387,0,0,0-2.951-1.451,1.112,1.112,0,0,0-1.24,1.239c0,.989.067,1.24.672,1.24Zm10.227-1.886a.475.475,0,0,0-.374-.262h-7.691a.479.479,0,0,0-.373.264.543.543,0,0,0-.048.455,1.859,1.859,0,0,0,1.5,1.417h5.528a1.854,1.854,0,0,0,1.5-1.417A.546.546,0,0,0,553.533,1323.68Zm5.282-.593a4.39,4.39,0,0,0-2.952,1.453c-.208.345-.4.724-.541,1.026h4.062c.606,0,.671-.251.671-1.24A1.11,1.11,0,0,0,558.815,1323.087Z" transform="translate(-532.128 -1303.01)"/></svg>