<svg xmlns="http://www.w3.org/2000/svg" width="28.537" height="28.537" viewBox="0 0 28.537 28.537"><defs><style>.a{fill:none;stroke:#fff;stroke-miterlimit:10;}.b{fill:#fff;}</style></defs><g transform="translate(0.5 0.5)"><path class="a" d="M1000.365,204.553V190.31a6.645,6.645,0,0,1,6.647-6.647h14.243a6.618,6.618,0,0,1,2.544.506,6.65,6.65,0,0,1,3.6,3.6,6.622,6.622,0,0,1,.506,2.544v14.243a6.641,6.641,0,0,1-2.954,5.526,6.655,6.655,0,0,1-3.693,1.12h-14.243a6.641,6.641,0,0,1-5.526-2.954,6.672,6.672,0,0,1-.614-1.149,6.674,6.674,0,0,1-.506-2.544Z" transform="translate(-1000.365 -183.663)"/><path class="b" d="M1018.962,197.936l-7.6,4.273v-8.546Z" transform="translate(-1000.92 -184.167)"/></g></svg>